<svg width="42" height="42" viewBox="0 0 42 42" fill="none" xmlns="http://www.w3.org/2000/svg">
<path d="M21 0C9.35455 0 0 9.35455 0 21C0 32.6455 9.35455 42 21 42C32.6455 42 42 32.6455 42 21C42 9.35455 32.6455 0 21 0ZM33.1227 14.4136L17.85 30.2591C17.6591 30.45 17.4682 30.5455 17.1818 30.5455C16.8955 30.5455 16.6091 30.45 16.5136 30.2591L9.06818 22.2409L8.87727 22.05C8.68636 21.8591 8.59091 21.5727 8.59091 21.3818C8.59091 21.1909 8.68636 20.9045 8.87727 20.7136L10.2136 19.3773C10.5955 18.9955 11.1682 18.9955 11.55 19.3773L11.6455 19.4727L16.8955 25.1045C17.0864 25.2955 17.3727 25.2955 17.5636 25.1045L30.3545 11.8364H30.45C30.8318 11.4545 31.4045 11.4545 31.7864 11.8364L33.1227 13.1727C33.5045 13.4591 33.5045 14.0318 33.1227 14.4136Z" fill="#F4F4F4"/>
</svg>
