<svg width="58" height="58" viewBox="0 0 58 58" fill="none" xmlns="http://www.w3.org/2000/svg">
<g clip-path="url(#clip0)">
<path d="M29 0C12.9182 0 0 12.9182 0 29C0 45.0818 12.9182 58 29 58C45.0818 58 58 45.0818 58 29C58 12.9182 45.0818 0 29 0Z" fill="#71D958"/>
<path d="M45.7409 19.9045L24.65 41.7863C24.3864 42.05 24.1227 42.1818 23.7273 42.1818C23.3318 42.1818 22.9364 42.05 22.8046 41.7863L12.5227 30.7136L12.2591 30.45C11.9955 30.1863 11.8636 29.7909 11.8636 29.5272C11.8636 29.2636 11.9955 28.8681 12.2591 28.6045L14.1046 26.759C14.6318 26.2318 15.4227 26.2318 15.95 26.759L16.0818 26.8909L23.3318 34.6681C23.5955 34.9318 23.9909 34.9318 24.2546 34.6681L41.9182 16.3454H42.05C42.5773 15.8181 43.3682 15.8181 43.8955 16.3454L45.7409 18.1909C46.2682 18.5863 46.2682 19.3772 45.7409 19.9045Z" fill="white"/>
</g>
<defs>
<clipPath id="clip0">
<rect width="58" height="58" fill="white"/>
</clipPath>
</defs>
</svg>
